<svg id="Layer_1" enable-background="new 0 0 512 512" viewBox="0 0 512 512" xmlns="http://www.w3.org/2000/svg"><path d="m457.48 82.22h-301.45c-6.31 0-12.37 1.53-17.82 4.47l-11.19-16.51-11.47-16.93c-3.83-5.66-9.66-9.49-16.4-10.79-4.73-.91-9.49-.49-13.87 1.15l-8.72-12.87c-1.86-2.74-5.59-3.46-8.33-1.6s-3.46 5.59-1.6 8.33l8.72 12.88c-7.81 8.56-9.07 21.68-2.29 31.68l8.12 11.99-12.14 8.18c-1.32.89-2.23 2.27-2.54 3.84-.3 1.56.03 3.19.92 4.5l32.86 48.52c1.16 1.71 3.05 2.64 4.97 2.64 1.16 0 2.33-.33 3.36-1.03 2.74-1.86 3.46-5.59 1.6-8.33l-29.49-43.54 7.17-4.83 30.23 44.63v25.71h-11.2c-4.18 0-7.56 3.27-7.68 7.45l-.47 15.66c-6.1 1.79-11.98 4.23-17.56 7.27l-11.4-10.74c-3.05-2.87-7.75-2.8-10.7.16l-24.31 24.31c-2.96 2.96-3.03 7.66-.16 10.7l10.74 11.4c-3.04 5.57-5.47 11.46-7.27 17.56l-15.66.47c-4.18.13-7.45 3.5-7.45 7.68v34.4c0 4.18 3.27 7.56 7.45 7.68l15.66.47c1.79 6.1 4.23 11.98 7.27 17.56l-10.74 11.4c-2.87 3.04-2.79 7.75.16 10.7l24.33 24.33c2.96 2.96 7.66 3.03 10.7.16l11.4-10.74c5.57 3.04 11.45 5.47 17.54 7.26l.49 15.67c.13 4.18 3.5 7.45 7.68 7.45h11.2v13.01h-33.12c-3.31 0-6 2.69-6 6v33.15c0 21.59 17.56 39.15 39.15 39.15h272.54.1c21.59 0 39.15-17.56 39.15-39.15v-283.48h61.04c3.31 0 6-2.69 6-6v-33.52c0-21.78-17.73-39.51-39.52-39.51zm-370.84-25.9c3-2.04 6.64-2.78 10.24-2.08 3.6.69 6.7 2.73 8.74 5.73l8.1 11.96-22.63 15.33-8.1-11.96c-4.22-6.24-2.59-14.75 3.65-18.98zm33.81 25.55 63.85 94.26-22.62 15.32-32.55-48.05s-.01-.01-.01-.01l-31.3-46.19zm70.54 104.22c5.04 7.64 9.27 14.54 12.83 20.77.07.13.14.26.22.38 17.73 31.14 18.37 45.11 17.12 47.68-3.42.27-21.15-8.14-52.73-53.54zm-72.85 140.04c-9.24-1.28-17.77-5.5-24.49-12.21-8.14-8.14-12.63-18.97-12.63-30.49s4.48-22.34 12.63-30.49c6.71-6.71 15.25-10.93 24.49-12.21zm-7.02 54.45-.46-14.68c-.11-3.46-2.43-6.35-5.78-7.21-7.17-1.83-14.02-4.66-20.36-8.43-2.98-1.77-6.67-1.37-9.2 1.01l-10.67 10.05-18.4-18.4 10.05-10.67c2.38-2.52 2.78-6.22 1.02-9.19-3.77-6.35-6.61-13.21-8.44-20.38-.86-3.36-3.76-5.68-7.22-5.78l-14.66-.45v-26.03l14.66-.44c3.46-.1 6.36-2.43 7.22-5.79 1.83-7.17 4.67-14.03 8.43-20.38 1.77-2.98 1.37-6.67-1.01-9.2l-10.05-10.67 18.4-18.4 10.67 10.05c2.52 2.38 6.22 2.78 9.19 1.01 6.36-3.77 13.21-6.61 20.38-8.44 3.36-.85 5.68-3.75 5.78-7.22l.44-14.66h7.01v42.36c-12.45 1.34-23.99 6.83-32.97 15.81-10.41 10.41-16.14 24.25-16.14 38.97s5.73 28.56 16.14 38.97c8.98 8.98 20.52 14.47 32.97 15.81v42.36zm7.05 91.32c-14.97 0-27.15-12.18-27.15-27.15v-27.15h260.65v27.15c0 10.53 4.14 20.11 10.92 27.15zm163.24-142.59c0 5.94-4.83 10.77-10.77 10.77 0 0 0 0-.01 0-5.94 0-10.77-4.84-10.77-10.78s4.83-10.78 10.78-10.78c5.93 0 10.77 4.84 10.77 10.79 0-.01 0-.01 0 0zm17.29 59.11v17.17h-56.14v-17.17zm119.27 56.32c0 14.97-12.18 27.15-27.15 27.15-.43 0-.85-.01-1.27-.03-14.51-.68-25.88-12.59-25.88-27.12v-33.15c0-3.31-2.69-6-6-6h-46.97v-23.17c0-3.31-2.69-6-6-6h-28.07v-25.15c7.74-2.12 13.85-8.23 15.97-15.97h17.85v21.83c0 3.31 2.69 6 6 6h68.14c3.31 0 6-2.69 6-6v-55.66c0-3.31-2.69-6-6-6h-68.14c-3.31 0-6 2.69-6 6v21.83h-17.85c-2.64-9.66-11.49-16.78-21.97-16.78s-19.33 7.12-21.97 16.78h-17.85v-21.83c0-3.31-2.69-6-6-6h-68.14c-3.31 0-6 2.69-6 6v55.66c0 3.31 2.69 6 6 6h68.14c3.31 0 6-2.69 6-6v-21.83h17.85c2.12 7.74 8.23 13.85 15.97 15.97v25.15h-28.07c-3.31 0-6 2.69-6 6v23.17h-100.42v-239.29l24.96 36.85c15.17 22.4 29.78 40.06 42.24 51.07 9.56 8.45 17.55 12.69 23.87 12.69.56 0 1.1-.04 1.64-.1l3.7 5.46c1.16 1.71 3.05 2.64 4.97 2.64 1.16 0 2.33-.33 3.36-1.03 2.74-1.86 3.46-5.59 1.6-8.33l-4.19-6.18c2.02-5.13 1.36-12.28-.91-20.33h73.06c3.31 0 6-2.69 6-6s-2.69-6-6-6h-77.28c-2.3-5.58-5.05-11.32-7.98-16.9h85.27c3.31 0 6-2.69 6-6s-2.69-6-6-6h-91.91c-5.8-9.97-11.45-18.59-14.94-23.75l-52.6-77.67c3.42-1.63 7.15-2.5 11.03-2.5h273.14c-6.92 7.12-11.19 16.83-11.19 27.52v33.52 289.48zm-95.52-137.27h56.14v43.66h-56.14zm-103.64 43.66h-56.14v-43.66h56.14zm266.19-201.88h-55.03v-27.52c0-15.17 12.34-27.52 27.52-27.52 15.17 0 27.52 12.34 27.52 27.52v27.52zm-94.51-30.57h-54.24c-3.31 0-6 2.69-6 6v122.82 15.4h-78.13c-3.31 0-6 2.69-6 6s2.69 6 6 6h84.13c3.31 0 6-2.69 6-6v-15.4h48.24c3.31 0 6-2.69 6-6v-122.82c0-3.31-2.68-6-6-6zm-6 122.82h-42.24v-110.82h42.24zm-183.98-119.08c0-3.31 2.69-6 6-6h37.43c3.31 0 6 2.69 6 6s-2.69 6-6 6h-37.43c-3.31 0-6-2.68-6-6zm60.17 0c0-3.31 2.69-6 6-6h37.43c3.31 0 6 2.69 6 6s-2.69 6-6 6h-37.43c-3.32 0-6-2.68-6-6zm49.77 27.93c0 3.31-2.69 6-6 6h-104.2c-3.31 0-6-2.69-6-6s2.69-6 6-6h104.2c3.31 0 6 2.68 6 6zm-60.51 25.85c0 3.31-2.69 6-6 6h-27.28c-3.31 0-6-2.69-6-6s2.69-6 6-6h27.28c3.31 0 6 2.68 6 6zm60.16 0c0 3.31-2.69 6-6 6h-37.43c-3.31 0-6-2.69-6-6s2.69-6 6-6h37.43c3.32 0 6 2.68 6 6z"/></svg>