<?xml version="1.0" encoding="UTF-8" standalone="no"?>
<!-- Created with Inkscape (http://www.inkscape.org/) -->

<svg
   version="1.1"
   id="svg1713"
   xml:space="preserve"
   width="682.66669"
   height="682.66669"
   viewBox="0 0 682.66669 682.66669"
   xmlns="http://www.w3.org/2000/svg"
   xmlns:svg="http://www.w3.org/2000/svg"><defs
     id="defs1717"><clipPath
       clipPathUnits="userSpaceOnUse"
       id="clipPath1727"><path
         d="M 0,512 H 512 V 0 H 0 Z"
         id="path1725" /></clipPath><clipPath
       clipPathUnits="userSpaceOnUse"
       id="clipPath1789"><path
         d="M 0,512 H 512 V 0 H 0 Z"
         id="path1787" /></clipPath></defs><g
     id="g1719"
     transform="matrix(1.3333333,0,0,-1.3333333,0,682.66667)"><g
       id="g1721"><g
         id="g1723"
         clip-path="url(#clipPath1727)"><path
           d="M 12.099,7.5 H 504.494 V 77.516 H 12.099 Z"
           style="fill:none;stroke:#000000;stroke-width:15;stroke-linecap:round;stroke-linejoin:round;stroke-miterlimit:10;stroke-dasharray:none;stroke-opacity:1"
           id="path1729" /></g></g><g
       id="g1731"
       transform="translate(56.8569,77.5161)"><path
         d="M 0,0 V -32.088"
         style="fill:none;stroke:#000000;stroke-width:15;stroke-linecap:round;stroke-linejoin:round;stroke-miterlimit:10;stroke-dasharray:none;stroke-opacity:1"
         id="path1733" /></g><g
       id="g1735"
       transform="translate(101.6147,77.5161)"><path
         d="M 0,0 V -17.093"
         style="fill:none;stroke:#000000;stroke-width:15;stroke-linecap:round;stroke-linejoin:round;stroke-miterlimit:10;stroke-dasharray:none;stroke-opacity:1"
         id="path1737" /></g><g
       id="g1739"
       transform="translate(146.3726,77.5161)"><path
         d="M 0,0 V -32.088"
         style="fill:none;stroke:#000000;stroke-width:15;stroke-linecap:round;stroke-linejoin:round;stroke-miterlimit:10;stroke-dasharray:none;stroke-opacity:1"
         id="path1741" /></g><g
       id="g1743"
       transform="translate(191.1592,77.5161)"><path
         d="M 0,0 V -17.093"
         style="fill:none;stroke:#000000;stroke-width:15;stroke-linecap:round;stroke-linejoin:round;stroke-miterlimit:10;stroke-dasharray:none;stroke-opacity:1"
         id="path1745" /></g><g
       id="g1747"
       transform="translate(235.917,77.5161)"><path
         d="M 0,0 V -32.088"
         style="fill:none;stroke:#000000;stroke-width:15;stroke-linecap:round;stroke-linejoin:round;stroke-miterlimit:10;stroke-dasharray:none;stroke-opacity:1"
         id="path1749" /></g><g
       id="g1751"
       transform="translate(280.6748,77.5161)"><path
         d="M 0,0 V -17.093"
         style="fill:none;stroke:#000000;stroke-width:15;stroke-linecap:round;stroke-linejoin:round;stroke-miterlimit:10;stroke-dasharray:none;stroke-opacity:1"
         id="path1753" /></g><g
       id="g1755"
       transform="translate(325.4331,77.5161)"><path
         d="M 0,0 V -32.088"
         style="fill:none;stroke:#000000;stroke-width:15;stroke-linecap:round;stroke-linejoin:round;stroke-miterlimit:10;stroke-dasharray:none;stroke-opacity:1"
         id="path1757" /></g><g
       id="g1759"
       transform="translate(370.1909,77.5161)"><path
         d="M 0,0 V -17.093"
         style="fill:none;stroke:#000000;stroke-width:15;stroke-linecap:round;stroke-linejoin:round;stroke-miterlimit:10;stroke-dasharray:none;stroke-opacity:1"
         id="path1761" /></g><g
       id="g1763"
       transform="translate(414.9487,77.5161)"><path
         d="M 0,0 V -32.088"
         style="fill:none;stroke:#000000;stroke-width:15;stroke-linecap:round;stroke-linejoin:round;stroke-miterlimit:10;stroke-dasharray:none;stroke-opacity:1"
         id="path1765" /></g><g
       id="g1767"
       transform="translate(459.7354,77.5161)"><path
         d="M 0,0 V -17.093"
         style="fill:none;stroke:#000000;stroke-width:15;stroke-linecap:round;stroke-linejoin:round;stroke-miterlimit:10;stroke-dasharray:none;stroke-opacity:1"
         id="path1769" /></g><g
       id="g1771"
       transform="translate(155.7271,186.4517)"><path
         d="M 0,0 H 203.749"
         style="fill:none;stroke:#000000;stroke-width:15;stroke-linecap:round;stroke-linejoin:round;stroke-miterlimit:10;stroke-dasharray:none;stroke-opacity:1"
         id="path1773" /></g><g
       id="g1775"
       transform="translate(155.7271,171.5415)"><path
         d="M 0,0 V 29.82"
         style="fill:none;stroke:#000000;stroke-width:15;stroke-linecap:round;stroke-linejoin:round;stroke-miterlimit:10;stroke-dasharray:none;stroke-opacity:1"
         id="path1777" /></g><g
       id="g1779"
       transform="translate(359.4761,171.5415)"><path
         d="M 0,0 V 29.82"
         style="fill:none;stroke:#000000;stroke-width:15;stroke-linecap:round;stroke-linejoin:round;stroke-miterlimit:10;stroke-dasharray:none;stroke-opacity:1"
         id="path1781" /></g><g
       id="g1783"><g
         id="g1785"
         clip-path="url(#clipPath1789)"><g
           id="g1791"
           transform="translate(423.6226,177.8911)"><path
             d="m 0,0 -22.053,44.362 c -0.737,1.474 -1.162,2.268 -1.162,3.941 V 279.979 H 23.187 V 48.303 c 0,-1.673 -0.425,-2.467 -1.162,-3.941 z"
             style="fill:none;stroke:#000000;stroke-width:15;stroke-linecap:round;stroke-linejoin:round;stroke-miterlimit:10;stroke-dasharray:none;stroke-opacity:1"
             id="path1793" /></g><g
           id="g1795"
           transform="translate(446.8096,226.1938)"><path
             d="M 0,0 H -46.402"
             style="fill:none;stroke:#000000;stroke-width:15;stroke-linecap:round;stroke-linejoin:round;stroke-miterlimit:10;stroke-dasharray:none;stroke-opacity:1"
             id="path1797" /></g><g
           id="g1799"
           transform="translate(446.8096,457.8701)"><path
             d="m 0,0 h -46.402 v 23.414 c 0,12.784 10.431,23.216 23.215,23.216 C -10.431,46.63 0,36.198 0,23.414 Z"
             style="fill:none;stroke:#000000;stroke-width:15;stroke-linecap:round;stroke-linejoin:round;stroke-miterlimit:10;stroke-dasharray:none;stroke-opacity:1"
             id="path1801" /></g><g
           id="g1803"
           transform="translate(446.8096,470.7676)"><path
             d="m 0,0 h 38.635 c 15.279,0 17.348,-9.836 17.348,-16.611 v -309.998 c 0,-9.354 -2.891,-18.623 -18.595,-18.623 l -325.211,0.028 h -113.553 c -20.863,0 -37.927,17.064 -37.927,37.899 0,20.863 17.064,37.928 37.927,37.928 h 27.126 c 7.116,0 12.926,5.811 12.926,12.926 V 20.098 c 0,7.115 -5.81,12.926 -12.926,12.926 h -27.126 c -20.863,0 -37.927,-17.065 -37.927,-37.928 V -307.305 M -170.528,0 h 124.126 m -314.922,0 h 156.015"
             style="fill:none;stroke:#000000;stroke-width:15;stroke-linecap:round;stroke-linejoin:round;stroke-miterlimit:10;stroke-dasharray:none;stroke-opacity:1"
             id="path1805" /></g><g
           id="g1807"
           transform="translate(423.6226,177.8911)"><path
             d="M 0,0 V -8.646"
             style="fill:none;stroke:#000000;stroke-width:15;stroke-linecap:round;stroke-linejoin:round;stroke-miterlimit:10;stroke-dasharray:none;stroke-opacity:1"
             id="path1809" /></g><g
           id="g1811"
           transform="translate(257.6016,440.0117)"><path
             d="m 0,0 50.938,-50.939 50.937,-50.967 H 0 -101.875 l 50.937,50.967 z"
             style="fill:none;stroke:#000000;stroke-width:15;stroke-linecap:round;stroke-linejoin:round;stroke-miterlimit:10;stroke-dasharray:none;stroke-opacity:1"
             id="path1813" /></g><g
           id="g1815"
           transform="translate(181.6348,299.9512)"><path
             d="m 0,0 v 38.155 m 154.116,0 V -70.668 H 0 v 35.887"
             style="fill:none;stroke:#000000;stroke-width:15;stroke-linecap:round;stroke-linejoin:round;stroke-miterlimit:10;stroke-dasharray:none;stroke-opacity:1"
             id="path1817" /></g><g
           id="g1819"
           transform="translate(258.707,302.2759)"><path
             d="m 0,0 v 0 c 12.444,0 22.648,-10.205 22.648,-22.677 v -50.316 h -45.325 v 50.316 C -22.677,-10.205 -12.472,0 0,0 Z"
             style="fill:none;stroke:#000000;stroke-width:15;stroke-linecap:round;stroke-linejoin:round;stroke-miterlimit:10;stroke-dasharray:none;stroke-opacity:1"
             id="path1821" /></g></g></g></g></svg>
